<svg width="116" height="116" viewBox="0 0 116 116" fill="none" xmlns="http://www.w3.org/2000/svg">
<g clip-path="url(#clip0_715_2)">
<path d="M99.5062 71.9563L112.737 85.7313L54.5562 114.913C54.5562 114.913 46.9437 118.719 43.3187 112.738C28.8187 89.175 99.5062 71.9563 99.5062 71.9563Z" fill="#256382"/>
<path d="M52.925 97.6937C52.925 97.6937 41.8687 101.862 43.8625 109.656C46.0375 117.812 54.9187 112.919 54.9187 112.919L110.2 85.7312C110.2 85.7312 107.119 77.0312 112.737 71.2312L52.925 97.6937Z" fill="#D9E3E8"/>
<path d="M62.35 16.1313L115.275 70.6876L52.7438 96.6064L12.6875 30.2689L62.35 16.1313Z" fill="#42ADE2"/>
<path d="M110.019 77.2125L73.0437 93.1626L109.294 75.5813L110.019 77.2125ZM109.475 81.925L70.1437 99.1438L108.75 80.2938L109.475 81.925ZM109.837 84.6438L59.6312 107.663L109.112 83.0125L109.837 84.6438Z" fill="#94989B"/>
<path d="M43.1375 112.556C36.975 98.9625 52.7438 96.6063 52.7438 96.6063L12.6875 30.2688C12.6875 30.2688 3.625 30.0875 3.625 40.0563C3.625 44.225 5.4375 47.3063 5.4375 47.3063L43.1375 112.556Z" fill="#428BC1"/>
<path d="M15.7687 58.3625L2.53748 72.1375L60.7187 101.319C60.7187 101.319 68.3312 105.125 71.9562 99.1438C86.4562 75.5813 15.7687 58.3625 15.7687 58.3625Z" fill="#547725"/>
<path d="M62.1687 84.1C62.1687 84.1 73.225 88.2687 71.2312 96.0625C69.0562 104.219 60.3562 99.325 60.3562 99.325L5.07498 72.1375C5.07498 72.1375 8.15623 63.4375 2.53748 57.6375L62.1687 84.1Z" fill="#D9E3E8"/>
<path d="M52.925 2.5376L0 57.0938L62.5312 83.0126L102.587 16.6751L52.925 2.5376Z" fill="#83BF4F"/>
<path d="M5.80001 61.9875L42.05 79.5688L5.07501 63.6188L5.80001 61.9875ZM6.52501 66.7L44.95 85.5501L5.61876 68.3313L6.52501 66.7ZM6.16251 69.4188L55.4625 94.0688L5.25626 71.05L6.16251 69.4188Z" fill="#94989B"/>
<path d="M72.1375 98.9625C78.3 85.3688 62.5312 83.0125 62.5312 83.0125L102.587 16.675C102.587 16.675 111.65 16.4938 111.65 26.4625C111.65 30.6313 109.837 33.7125 109.837 33.7125L72.1375 98.9625Z" fill="#699635"/>
<path d="M102.769 47.125L113.825 58.725L64.7062 83.1938C64.7062 83.1938 58.1812 86.275 55.1 81.3813C43.1375 61.625 102.769 47.125 102.769 47.125Z" fill="#962C2C"/>
<path d="M63.4375 68.875C63.4375 68.875 54.0125 72.3188 55.825 79.025C57.6375 85.9125 65.0688 81.7438 65.0688 81.7438L111.65 58.7251C111.65 58.7251 109.113 51.475 113.825 46.5813L63.4375 68.875Z" fill="#D9E3E8"/>
<path d="M71.4125 0L116 46.0375L63.2562 67.9688L29.3625 11.9625L71.4125 0Z" fill="#ED4C5C"/>
<path d="M72.6812 10.5125L81.3813 20.1187L49.3 32.2624L41.6875 19.9375L72.6812 10.5125Z" fill="white"/>
<path d="M111.65 51.6562L80.475 64.8874L110.925 50.0249L111.65 51.6562ZM111.287 55.6437L77.9375 69.9624L110.562 54.0124L111.287 55.6437ZM111.65 57.8187L69.2375 77.2124L110.744 56.1874L111.65 57.8187Z" fill="#94989B"/>
<path d="M55.2812 81.3812C50.2062 69.9625 63.4375 67.9687 63.4375 67.9687L29.3625 11.9625C29.3625 11.9625 21.5687 11.7812 21.5687 20.1187C21.5687 23.5625 23.0187 26.2812 23.0187 26.2812L55.2812 81.3812Z" fill="#C94747"/>
</g>
<defs>
<clipPath id="clip0_715_2">
<rect width="116" height="116" fill="white"/>
</clipPath>
</defs>
</svg>
